<svg width="655" height="130" xmlns="http://www.w3.org/2000/svg">
 <g>
  <title>background</title>
  <rect x="-1" y="-1" width="657" height="132" id="canvas_background" fill="none"/>
 </g>

 <g>
  <title>Layer 1</title>
  <circle r="166.666672" cx="138.84293" cy="-150.762226" fill="#209cee" transform="matrix(0.3652380827499204,0,0,0.3652381065126043,11.925235373803838,118.38717545726867) " id="svg_3"/>
  <path stroke="null" d="m34.539297,93.582038l0,-54.739235l10.041502,-9.498721l38.487941,0l6.820649,6.451957l0,-7.373665l4.384701,0l0,24.886126l-4.384701,0l0,-11.802988l-8.972402,-8.474598l-23.966997,0l0,66.363012l26.213484,0l8.769401,-8.29538l3.017866,2.854737l-9.649054,9.127476l-40.720889,0l-10.041502,-9.498721z" fill="#ffffff" id="svg_4"/>
  <path d="m171.477413,55.58572l9.58904,9.58904l0,36.65029l-9.58904,9.58905l-34.23365,0l-9.58904,-9.58905l0,-36.65029l9.58904,-9.58904l34.23365,0zm-12.74231,3.72189l-8.74903,0l0,48.38459l8.74903,0l0,-48.38459zm89.41586,48.38459l7.44378,0l0,3.7219l-20.18609,0l-6.51331,-6.60378l-6.61669,6.60378l-23.26183,0l-8.64564,-8.65858l0,-38.51124l8.64564,-8.65856l22.70612,0l5.02715,5.02714l0,-27.35849l-7.44379,0l0,-3.72189l20.1861,0l8.65856,8.65856l0,69.50116zm-27.91418,0l6.51331,-6.51331l0,-34.80227l-7.06902,-7.06901l-7.44378,0l0,48.38459l7.99949,0zm40.9408,-4.93668l8.65857,8.65858l36.18506,0l8.65856,-8.65858l-2.88188,-2.88187l-7.81855,7.81855l-21.40088,0l0,-19.53993l22.97751,0l8.65857,-8.65857l0,-15.24941l-8.65857,-8.65857l-35.71982,0l-8.65857,8.65857l0,38.51124l0,-0.00001zm21.40088,-18.32514l0,-25.12277l10.2352,0l0,25.12277l-10.2352,0zm82.52777,-28.84466l6.79763,6.79762l-2.88188,2.88188l-5.95762,-5.95761l-7.90901,0l-6.51331,6.51331l0,41.87128l7.44378,0l0,3.7219l-20.1861,0l-8.65856,-8.65858l0,-43.44791l-7.44378,0l0,-3.72189l20.18609,0l6.6167,6.51331l6.51331,-6.51331l11.99275,0zm65.88266,34.4275l0,17.67898l-28.37943,0l0,-66.99405l7.44379,0l0,-3.72189l-36.28845,0l0,3.72189l7.44379,0l0,66.99405l-7.44379,0l0,3.7219l61.41121,0l0,-21.40088l-4.18712,0zm12.56138,13.67278l7.72809,7.7281l20.36702,0l5.68623,-5.67331l5.58283,5.67331l21.11657,0l0,-3.7219l-7.44379,0l0,-44.37838l-7.72809,-7.7281l-35.25458,0l-7.7281,7.7281l0,10.88136l19.53993,0l0,-14.88757l9.76997,0l0,22.33135l-23.90799,0l-7.72809,7.7281l0,14.31894zm21.86611,4.0062l0,-22.33135l9.76997,0l0,16.74851l-5.58284,5.58284l-4.18713,0zm105.60868,0l7.44378,0l0,3.7219l-21.11656,0l-7.7281,-7.7281l0,-44.37839l-6.51331,0l-6.51331,6.51331l0,41.87128l4.65236,0l0,3.7219l-33.49702,0l0,-3.7219l7.44378,0l0,-48.38459l-7.44378,0l0,-3.72189l20.18609,0l6.6167,6.51331l6.51331,-6.51331l21.29749,0l8.65857,8.65857l0,43.44791zm71.73688,0l7.44378,0l0,3.7219l-20.1861,0l-6.51331,-6.60378l-6.60377,6.60378l-23.26182,0l-8.65857,-8.65858l0,-38.51124l8.65857,-8.65856l22.6932,0l5.02714,5.02714l0,-27.35849l-7.44378,0l0,-3.72189l20.19901,0l8.64565,8.65856l0,69.50116zm-27.91419,0l6.51331,-6.51331l0,-34.80227l-7.06901,-7.06901l-7.44378,0l0,48.38459l7.99948,0z" fill="#209cee" id="svg_5"/>
 </g>
</svg>