<svg width="700" height="180" xmlns="http://www.w3.org/2000/svg">

 <g>
  <title>background</title>
  <rect fill="none" id="canvas_background" height="182" width="702" y="-1" x="-1"/>
 </g>
 <g>
  <title>Layer 1</title>
  <circle id="svg_3" transform="matrix(0.5000988032734203,0,0,0.5000988358102513,10.396531354139825,98.64945347705046) " fill="#209cee" cy="-18.077217" cx="157.019822" r="166.666672"/>
  <path stroke="null" id="svg_4" fill="#ffffff" d="m46.782086,130.374349l0,-75.121622l14.350878,-13.035603l55.005258,0l9.747765,8.854371l0,-10.119287l6.266419,0l0,34.152582l-6.266419,0l0,-16.19788l-12.822956,-11.630149l-34.252569,0l0,91.073555l37.463145,0l12.532846,-11.384196l4.312995,3.917711l-13.789998,12.526129l-58.196486,0l-14.350878,-13.03561z"/>
  <path id="svg_5" fill="#209cee" d="m218.288088,100.95607l9.589041,9.589041l0,36.650293l-9.589041,9.589041l-34.23365,0l-9.589036,-9.589041l0,-36.650293l9.589036,-9.589041l34.23365,0zm-12.742308,3.721891l-8.749029,0l0,48.384589l8.749029,0l0,-48.384589zm89.41586,48.384589l7.443781,0l0,3.721896l-20.186089,0l-6.513311,-6.603774l-6.616695,6.603774l-23.261825,0l-8.645645,-8.658572l0,-38.511239l8.645645,-8.658566l22.706122,0l5.027144,5.027138l0,-27.358488l-7.443787,0l0,-3.721891l20.186095,0l8.658566,8.658566l0,69.501154zm-27.914185,0l6.513311,-6.513306l0,-34.802274l-7.069015,-7.069009l-7.443781,0l0,48.384589l7.999485,0zm40.940808,-4.936675l8.658566,8.658572l36.185058,0l8.658566,-8.658572l-2.881884,-2.881878l-7.818553,7.818553l-21.400879,0l0,-19.539929l22.97751,0l8.658572,-8.658566l0,-15.249419l-8.658572,-8.658566l-35.719818,0l-8.658566,8.658566l0,38.511239zm21.400874,-18.325144l0,-25.12277l10.235202,0l0,25.12277l-10.235202,0zm82.527777,-28.844661l6.797621,6.797621l-2.881878,2.881884l-5.957614,-5.957614l-7.909016,0l-6.513311,6.513311l0,41.871278l7.443781,0l0,3.721896l-20.186095,0l-8.658566,-8.658572l0,-43.447914l-7.443781,0l0,-3.721891l20.186095,0l6.616695,6.513311l6.513311,-6.513311l11.992758,0zm65.882653,34.427497l0,17.678983l-28.379426,0l0,-66.994048l7.443787,0l0,-3.721891l-36.288448,0l0,3.721891l7.443787,0l0,66.994048l-7.443787,0l0,3.721896l61.411212,0l0,-21.400879l-4.187126,0zm12.561382,13.672783l7.728096,7.728096l20.367015,0l5.686225,-5.673304l5.582836,5.673304l21.11657,0l0,-3.721896l-7.443787,0l0,-44.378384l-7.728091,-7.728096l-35.254588,0l-7.728091,7.728096l0,10.881363l19.539929,0l0,-14.887568l9.769967,0l0,22.331349l-23.907985,0l-7.728096,7.728096l0,14.318944zm21.866114,4.0062l0,-22.331349l9.769967,0l0,16.748513l-5.582841,5.582836l-4.187126,0zm105.608676,0l7.443781,0l0,3.721896l-21.116565,0l-7.728096,-7.728096l0,-44.378389l-6.513311,0l-6.513306,6.513311l0,41.871278l4.652361,0l0,3.721896l-33.497021,0l0,-3.721896l7.443781,0l0,-48.384589l-7.443781,0l0,-3.721891l20.186089,0l6.616701,6.513311l6.513306,-6.513311l21.297496,0l8.658566,8.658566l0,43.447914zm71.736877,0l7.443781,0l0,3.721896l-20.186095,0l-6.513311,-6.603774l-6.603769,6.603774l-23.261825,0l-8.658566,-8.658572l0,-38.511239l8.658566,-8.658566l22.693201,0l5.027138,5.027138l0,-27.358488l-7.443781,0l0,-3.721891l20.199016,0l8.645645,8.658566l0,69.501154zm-27.914191,0l6.513311,-6.513306l0,-34.802274l-7.069009,-7.069009l-7.443781,0l0,48.384589l7.999479,0z"/>
 </g>
</svg>